<svg width="100" height="100" viewBox="0 0 100 100" fill="none" xmlns="http://www.w3.org/2000/svg">
<g clip-path="url(#clip0_89_3746)">
<path d="M82.1875 10H17.8125C13.4978 10 10 13.4978 10 17.8125V82.1875C10 86.5022 13.4978 90 17.8125 90H82.1875C86.5022 90 90 86.5022 90 82.1875V17.8125C90 13.4978 86.5022 10 82.1875 10Z" fill="#3178C6"/>
<path fill-rule="evenodd" clip-rule="evenodd" d="M59.0842 73.2899V81.058C60.3558 81.7054 61.8597 82.1908 63.5959 82.5145C65.3322 82.8382 67.162 83 69.0858 83C70.9606 83 72.7416 82.822 74.4289 82.4659C76.1162 82.1099 77.5958 81.5232 78.8673 80.7059C80.1389 79.8888 81.1456 78.8206 81.8873 77.5016C82.6291 76.1827 83 74.5523 83 72.6103C83 71.2022 82.7881 69.9683 82.3642 68.9083C81.9403 67.8483 81.3291 66.9057 80.5302 66.0803C79.7314 65.2549 78.7736 64.5145 77.6569 63.859C76.5402 63.2036 75.2808 62.5846 73.8787 62.0021C72.8517 61.5812 71.9306 61.1727 71.1155 60.7762C70.3003 60.3796 69.6075 59.9751 69.0369 59.5624C68.4662 59.1497 68.0261 58.7127 67.7164 58.2516C67.4067 57.7902 67.2517 57.2684 67.2517 56.6857C67.2517 56.1518 67.3903 55.6703 67.6675 55.2414C67.9447 54.8125 68.3359 54.4444 68.8413 54.1368C69.3467 53.8294 69.9661 53.5906 70.6997 53.4207C71.4334 53.2508 72.2484 53.1659 73.1452 53.1659C73.7972 53.1659 74.4859 53.2145 75.2114 53.3115C75.9369 53.4086 76.6664 53.5584 77.4002 53.7606C78.1338 53.9629 78.8469 54.2178 79.5398 54.5252C80.2327 54.8328 80.8725 55.1888 81.4594 55.5934V48.3351C80.2694 47.882 78.9692 47.5462 77.5591 47.3277C76.1489 47.1092 74.5308 47 72.705 47C70.8464 47 69.0858 47.1983 67.423 47.5948C65.7602 47.9912 64.297 48.6102 63.0334 49.4517C61.77 50.2934 60.7716 51.3655 60.038 52.6683C59.3044 53.971 58.9375 55.5286 58.9375 57.3412C58.9375 59.6554 59.61 61.6298 60.955 63.2644C62.2998 64.8988 64.3417 66.2825 67.0806 67.4154C68.1566 67.8524 69.1592 68.2811 70.0884 68.7019C71.0177 69.1228 71.8206 69.5597 72.497 70.0128C73.1736 70.4659 73.7075 70.9595 74.0989 71.4937C74.4902 72.0276 74.6858 72.6345 74.6858 73.3143C74.6858 73.816 74.5634 74.2812 74.3189 74.7101C74.0744 75.139 73.7034 75.5111 73.2063 75.8267C72.7091 76.1423 72.0895 76.389 71.3478 76.567C70.6059 76.7452 69.738 76.8341 68.7434 76.8341C67.048 76.8341 65.3689 76.5388 63.7059 75.948C62.0431 75.3574 60.5025 74.4714 59.0842 73.2899ZM45.9344 54.1507H55.9688V47.7759H28V54.1507H37.9853V82.5345H45.9344V54.1507Z" fill="white"/>
</g>
<defs>
<clipPath id="clip0_89_3746">
<rect width="100" height="100" fill="white"/>
</clipPath>
</defs>
</svg>
