<svg width="100" height="100" viewBox="0 0 100 100" fill="none" xmlns="http://www.w3.org/2000/svg">
<g clip-path="url(#clip0_118_22)">
<path d="M50 59.3993C54.9225 59.3993 58.913 55.4088 58.913 50.4863C58.913 45.5637 54.9225 41.5732 50 41.5732C45.0774 41.5732 41.0869 45.5637 41.0869 50.4863C41.0869 55.4088 45.0774 59.3993 50 59.3993Z" fill="#61DAFB"/>
<path d="M50 68.7464C76.4136 68.7464 97.8261 60.5707 97.8261 50.4855C97.8261 40.4003 76.4136 32.2247 50 32.2247C23.5864 32.2247 2.17392 40.4003 2.17392 50.4855C2.17392 60.5707 23.5864 68.7464 50 68.7464Z" stroke="#61DAFB" stroke-width="4"/>
<path d="M34.1856 59.616C47.3924 82.4908 65.179 96.9467 73.913 91.9041C82.6471 86.8615 79.0212 64.23 65.8144 41.3551C52.6076 18.4802 34.821 4.02433 26.087 9.06693C17.3529 14.1095 20.9788 36.7411 34.1856 59.616Z" stroke="#61DAFB" stroke-width="4"/>
<path d="M34.1856 41.3551C20.9788 64.23 17.3529 86.8615 26.087 91.9041C34.821 96.9467 52.6076 82.4908 65.8144 59.616C79.0212 36.7411 82.6471 14.1095 73.913 9.06693C65.179 4.02432 47.3924 18.4802 34.1856 41.3551Z" stroke="#61DAFB" stroke-width="4"/>
</g>
<defs>
<clipPath id="clip0_118_22">
<rect width="100" height="88.9716" fill="white" transform="translate(0 6)"/>
</clipPath>
</defs>
</svg>
