<svg width="100" height="100" viewBox="0 0 100 100" fill="none" xmlns="http://www.w3.org/2000/svg">
<path fill-rule="evenodd" clip-rule="evenodd" d="M74.2989 10C78.6344 10 82.5596 11.7674 85.4009 14.6236C88.2422 17.4798 90 21.4266 90 25.7851V74.2149C90 78.5738 88.2426 82.5202 85.4013 85.3769C83.9449 86.8448 82.2143 88.009 80.309 88.8024C78.4037 89.5958 76.3612 90.0028 74.2989 90V90H25.7011C21.3656 90 17.4404 88.2326 14.5991 85.3764C11.7578 82.5202 10 78.5734 10 74.2149V25.7851C10 21.4262 11.7574 17.4798 14.5987 14.6231C16.0551 13.1552 17.7857 11.991 19.691 11.1976C21.5963 10.4042 23.6388 9.99723 25.7011 10V10H74.2989Z" fill="#EC5990" stroke="white" stroke-width="4"/>
<path fill-rule="evenodd" clip-rule="evenodd" d="M63.6342 28.4846H54.7108C54.0565 26.4089 52.1532 25 50.0032 25C47.8532 25 45.9499 26.4089 45.2956 28.4846H36.3658C32.85 28.4846 30 31.373 30 34.9361V68.5486C30 72.1116 32.85 75 36.3658 75H63.6342C67.15 75 70 72.1116 70 68.5486V34.9361C70 31.373 67.15 28.4846 63.6342 28.4846ZM45.7408 29.6575C45.8751 29.6609 46.0064 29.6165 46.112 29.5319C46.2176 29.4473 46.2909 29.3278 46.3193 29.1941C46.6982 27.432 48.2376 26.175 50.0173 26.175C51.797 26.175 53.3364 27.4315 53.7153 29.1941C53.7437 29.3278 53.8171 29.4473 53.9227 29.5319C54.0283 29.6165 54.1595 29.6609 54.2939 29.6575H57.4073V33.4993C57.4073 34.4709 56.6299 35.2588 55.6712 35.2588H44.3575C43.3988 35.2588 42.6214 34.4709 42.6214 33.4993V29.6575H45.7404H45.7408ZM68.8425 68.5486C68.8425 71.464 66.5107 73.8271 63.6342 73.8271H36.3658C33.4893 73.8271 31.1575 71.464 31.1575 68.5486V34.9361C31.1575 32.0207 33.4893 29.6575 36.3658 29.6575H41.4642V33.4993C41.4642 35.119 42.7599 36.4317 44.3579 36.4317H55.6425C57.2405 36.4317 58.5362 35.1185 58.5362 33.4993V29.6575H63.6346C66.5111 29.6575 68.8429 32.0207 68.8429 34.9361V68.5486H68.8425ZM62.4997 47.6516H52.3144C52.2386 47.6515 52.1635 47.6665 52.0934 47.6959C52.0233 47.7253 51.9596 47.7685 51.9059 47.8229C51.8521 47.8774 51.8095 47.9421 51.7803 48.0134C51.7512 48.0847 51.7361 48.1611 51.7359 48.2383C51.7361 48.3155 51.7512 48.3919 51.7803 48.4632C51.8095 48.5345 51.8521 48.5992 51.9059 48.6537C51.9596 48.7081 52.0233 48.7513 52.0934 48.7807C52.1635 48.8101 52.2386 48.8251 52.3144 48.825H62.4997C62.5755 48.8251 62.6506 48.8101 62.7207 48.7807C62.7908 48.7513 62.8546 48.7081 62.9083 48.6537C62.962 48.5992 63.0047 48.5345 63.0338 48.4632C63.063 48.3919 63.0781 48.3155 63.0783 48.2383C63.0781 48.1611 63.063 48.0847 63.0338 48.0134C63.0047 47.9421 62.962 47.8774 62.9083 47.8229C62.8546 47.7685 62.7908 47.7253 62.7207 47.6959C62.6506 47.6665 62.5755 47.6515 62.4997 47.6516ZM47.4538 47.6516H37.2685C37.1927 47.6515 37.1176 47.6665 37.0475 47.6959C36.9774 47.7253 36.9137 47.7685 36.86 47.8229C36.8062 47.8774 36.7636 47.9421 36.7344 48.0134C36.7052 48.0847 36.6901 48.1611 36.69 48.2383C36.6901 48.3155 36.7052 48.3919 36.7344 48.4632C36.7636 48.5345 36.8062 48.5992 36.86 48.6537C36.9137 48.7081 36.9774 48.7513 37.0475 48.7807C37.1176 48.8101 37.1927 48.8251 37.2685 48.825H47.4538C47.5296 48.8251 47.6047 48.8101 47.6748 48.7807C47.7449 48.7513 47.8086 48.7081 47.8624 48.6537C47.9161 48.5992 47.9587 48.5345 47.9879 48.4632C48.0171 48.3919 48.0322 48.3155 48.0324 48.2383C48.0322 48.1611 48.0171 48.0847 47.9879 48.0134C47.9587 47.9421 47.9161 47.8774 47.8624 47.8229C47.8086 47.7685 47.7449 47.7253 47.6748 47.6959C47.6047 47.6665 47.5296 47.6515 47.4538 47.6516V47.6516V47.6516ZM62.5288 61.845H52.3149C52.2391 61.8448 52.164 61.8598 52.0939 61.8892C52.0238 61.9186 51.96 61.9618 51.9063 62.0163C51.8526 62.0707 51.8099 62.1355 51.7807 62.2067C51.7516 62.278 51.7365 62.3544 51.7363 62.4316C51.7365 62.5088 51.7516 62.5853 51.7807 62.6565C51.8099 62.7278 51.8526 62.7925 51.9063 62.847C51.96 62.9015 52.0238 62.9446 52.0939 62.974C52.164 63.0034 52.2391 63.0184 52.3149 63.0183H62.5288C62.6046 63.0184 62.6797 63.0034 62.7498 62.974C62.8199 62.9446 62.8836 62.9015 62.9374 62.847C62.9911 62.7925 63.0337 62.7278 63.0629 62.6565C63.0921 62.5853 63.1072 62.5088 63.1073 62.4316C63.1072 62.3544 63.0921 62.278 63.0629 62.2067C63.0337 62.1355 62.9911 62.0707 62.9374 62.0163C62.8836 61.9618 62.8199 61.9186 62.7498 61.8892C62.6797 61.8598 62.6046 61.8448 62.5288 61.845V61.845V61.845ZM47.4824 61.845H37.2685C37.1927 61.8448 37.1176 61.8598 37.0475 61.8892C36.9774 61.9186 36.9137 61.9618 36.86 62.0163C36.8062 62.0707 36.7636 62.1355 36.7344 62.2067C36.7052 62.278 36.6901 62.3544 36.69 62.4316C36.6901 62.5088 36.7052 62.5853 36.7344 62.6565C36.7636 62.7278 36.8062 62.7925 36.86 62.847C36.9137 62.9015 36.9774 62.9446 37.0475 62.974C37.1176 63.0034 37.1927 63.0184 37.2685 63.0183H47.4824C47.5583 63.0184 47.6334 63.0034 47.7035 62.974C47.7736 62.9446 47.8373 62.9015 47.891 62.847C47.9447 62.7925 47.9874 62.7278 48.0166 62.6565C48.0457 62.5853 48.0608 62.5088 48.061 62.4316C48.0608 62.3544 48.0457 62.278 48.0166 62.2067C47.9874 62.1355 47.9447 62.0707 47.891 62.0163C47.8373 61.9618 47.7736 61.9186 47.7035 61.8892C47.6334 61.8598 47.5583 61.8448 47.4824 61.845V61.845V61.845Z" fill="white"/>
</svg>
