<svg xmlns="http://www.w3.org/2000/svg" xml:space="preserve" width="30" height="30" style="shape-rendering:geometricPrecision;text-rendering:geometricPrecision;image-rendering:optimizeQuality;fill-rule:evenodd;clip-rule:evenodd"><path d="M14.63 2.49c.13 0 .24-.02.38-.02.15 0 .23.02.38.02.37 0 1.13.04 1.47.12l1.9.45c.21.07.39.13.59.2.1.04.2.07.29.11.49.21 1.01.43 1.48.71l.12.06.74.45c.33.22.62.44.91.66.87.68 1.69 1.56 2.3 2.44a12.743 12.743 0 0 1 1.62 3.11c.25.69.55 1.75.65 2.49.01.1.02.28.03.37.01.14.02.24.02.38.01.12.04.21.04.36.01.28.02 1.34-.01 1.53-.03.18-.04.41-.05.59-.02.28-.08.56-.13.85-.01.1-.03.17-.05.27-.09.39-.28 1.21-.42 1.51-.06.15-.12.3-.17.46-.09.32-.66 1.43-.83 1.74-.17.3-.32.54-.5.8-.08.12-.18.25-.26.38-.1.15-.74.93-.87 1.05l-1.32 1.25c-.38.34-1.5 1.1-1.92 1.29-.15.07-.29.16-.42.23-.29.14-1.59.72-1.85.71v-4.4c0-.53-.15-1.12-.4-1.59-.1-.19-.26-.41-.42-.56l-.51-.45c.1-.07.2-.04.32-.05.1-.02.04-.03.15-.04.29-.01.56-.09.84-.11.33-.04.92-.19 1.24-.29.73-.23 1.43-.55 2.01-1 .75-.57 1.22-1.38 1.5-2.3.05-.18.12-.43.14-.62.01-.09.04-.24.06-.32.03-.11.01-.23.03-.35.07-.45.08-1.36.02-1.8-.03-.18-.05-.36-.09-.52l-.19-.72c-.06-.17-.38-.91-.48-1.04-.09-.13-.16-.23-.24-.36-.1-.14-.18-.22-.28-.34-.15-.2-.1-.16-.04-.41l.12-.48c.06-.25.06-.58.09-.83l-.02-.59c-.01-.09-.03-.15-.04-.26-.03-.36-.29-1.07-.48-1.34-.32-.02-.66.04-1 .09-.07.01-.16.03-.23.05-.07.02-.14.03-.21.05-.39.14-.79.29-1.15.51-.11.07-.23.14-.34.2-.12.06-.22.13-.33.2-.67.44-.54.48-.89.39l-1.41-.22-2-.04c-.34-.01-.3.02-.53.03-.21.01-.34.03-.56.04-.1 0-.12.03-.24.04-.16 0-.81.12-1 .16-.35.08-.27.13-.59-.09-.33-.24-.71-.5-1.04-.68-.22-.13-.54-.31-.76-.38-.15-.06-.29-.11-.44-.15-.07-.02-.16-.04-.23-.06-.16-.04-.31-.08-.48-.09-.12 0-.15-.03-.24-.04h-.29c-.06 0-.09 0-.15-.01-.03 0-.02-.01-.06 0-.15.01-.37.8-.4.9-.05.22-.12.58-.15.8-.02.18-.02.75.01.9l.12.75c.13.62.25.24-.22.85-.64.83-.97 1.85-1.05 2.89l-.04.85c0 .09.03.13.03.19.01.06 0 .13 0 .19.01.1.02.25.04.35.01.12 0 .24.02.36l.09.47c.05.32.2.75.31 1.03.11.25.22.52.39.75.06.07.1.15.15.23.06.08.12.14.17.2.59.76 1.76 1.28 2.63 1.54.33.1 1.02.29 1.37.33.08 0 .1.02.16.03.12.01.24.04.34.04.14.01.53.04.66.08.01.08 0 .06-.05.1l-.23.19c-.41.38-.69.84-.87 1.38-.03.1-.07.1-.15.13-.21.09-.45.11-.67.17-.09.03-.17.01-.25.03-.26.06-.78.04-1.01 0-.43-.09-.83-.3-1.14-.61-.11-.11-.22-.19-.3-.29-.67-.77-1.03-1.71-2.26-1.82-.17-.01-.4-.02-.54.04-.42.19.29.6.57.88.3.31.43.28.73.75l.31.54c.07.14.11.28.17.42.18.4.4.73.7 1.05.18.2.41.36.66.52.59.35 1.29.37 1.96.36l.66-.08c.07-.01.03-.02.1-.03.07-.01.2-.02.27-.03v3.34c-.19-.01-.77-.25-.97-.32-.47-.18-.88-.4-1.31-.63-.08-.04-.15-.07-.21-.11l-.99-.63c-.25-.17-.69-.5-.9-.71l-.12-.09c0-.01 0-.01-.01-.01l-.01-.01c-.13-.1-.23-.23-.37-.35-.29-.25-.97-.98-1.22-1.34-.14-.19-.28-.35-.41-.55-.2-.32-.47-.66-.63-.98-.27-.52-.65-1.18-.82-1.75-.06-.18-.13-.32-.18-.46-.03-.09-.04-.17-.07-.26-.03-.08-.06-.16-.09-.23-.1-.33-.16-.71-.25-1.04-.06-.21-.09-.48-.12-.69l-.11-1.01c-.02-.17-.01-.43-.01-.61l-.01-.24c.02-.17.01-.38.01-.56l.06-.71c.09-.55.07-.68.22-1.33.14-.62.32-1.23.53-1.8.08-.2.15-.39.23-.56.61-1.34.92-1.81 1.75-2.92l.72-.83c.22-.21.56-.57.8-.76l.43-.35c.08-.07.16-.11.23-.17.35-.31.75-.54 1.15-.78.47-.28.98-.52 1.48-.76 0 0 .01 0 .01-.01l.6-.25c.46-.18 1.33-.41 1.82-.52l.32-.07c.67-.1 1.19-.17 1.88-.17zm15.31 13.09c.08-2.33-.35-4.38-1.14-6.32-.34-.86-.82-1.74-1.29-2.45-.23-.34-.73-1.04-1-1.35l-.65-.73c-.5-.55-1.36-1.31-1.98-1.76C21.47 1.23 18.79.2 15.58.06 13.4-.03 11.06.41 9.26 1.2c-.44.18-.87.37-1.28.6-.41.22-.79.45-1.17.69-.38.25-.73.52-1.08.79-.32.24-.49.42-.77.64-.37.31-.81.82-1.16 1.17-.2.21-.66.8-.83 1.03a14.908 14.908 0 0 0-2.91 8.29c-.12 3.14.77 6.28 2.43 8.78.23.34.73 1.04 1 1.35l.43.5c.04.05.06.06.11.11l.58.6c.37.35.61.55.99.87.73.61 1.94 1.39 2.85 1.82 1.79.85 3.69 1.4 5.97 1.5 2.18.09 4.52-.35 6.32-1.14.44-.18.87-.37 1.28-.6 1.51-.83 2.08-1.29 3.25-2.34.17-.15.32-.3.48-.47l.87-.99c.14-.17.27-.34.41-.52 1.72-2.35 2.79-5.18 2.91-8.3z" style="fill:#1c1b17"/></svg>