<svg xmlns="http://www.w3.org/2000/svg" xml:space="preserve" width="84" height="30" style="shape-rendering:geometricPrecision;text-rendering:geometricPrecision;image-rendering:optimizeQuality;fill-rule:evenodd;clip-rule:evenodd"><defs><style>.fil0{fill:#000}</style></defs><g id="Слой_x0020_1"><g id="_1590043554112"><path d="M63.67 23.2c0-1.56.46-3.89 2.22-3.89 1.1 0 1.99-.15 2.8 1.09.55.83 1.66 6.41-2.38 6.41-1.9 0-2.64-1.7-2.64-3.61zm20 3.19v3.47H73.39c-.69 0-.41-2.16-.41-3.47l-.95 1.41c-1.02 1.28-2.95 2.2-4.75 2.2-5.92 0-5.8-2.07-6.94-2.92-1.17 1.75-2.98 2.92-5.28 2.92h-.12c-2.42 0-3.91-.09-5.72-1.67-1.95-1.71-1.94-3.93-1.94-6.11 0-3.67 2.91-6.25 6.81-6.25 4.97 0 5.76 2.6 6.38 3.06.21-.88 1.47-1.85 2.22-2.23 2.8-1.43 7.49-1.03 9.32 1.39l.97 1.53v-3.47h4.3v10.14h6.39zm-32.22-3.33c0-1.49.53-3.75 2.22-3.75 1.01 0 2.01-.14 2.76.99.62.92 1.71 6.51-2.34 6.51-1.96 0-2.64-1.79-2.64-3.75zM31.72 29.45c0 .32.1.41.42.41h3.47c.32 0 .42-.09.42-.41v-5.14h4.44v5.14c0 .32.1.41.42.41h3.47c.32 0 .42-.09.42-.41v-13.2h-4.31v4.72h-4.44v-4.72h-4.31v13.2zM6.86 5.69H5.47V3.05h2.22c.91 0 1.53.36 1.53 1.26 0 1.14-1.19 1.38-2.36 1.38zM1.3 13.75h4.17V8.33c2.12 0 2.08 1.53 3.5 3.87.32.52.53 1.03.81 1.55h4.86c-.6-1.12-1.97-3.98-2.68-4.82-.9-1.07-1.02-.83-1.49-1.15C14.85 6.76 14.6.28 9.5.28H1.3v13.47zM42.28 4.03c0 4.82 7.64 3.49 7.64 5.83 0 2.05-3.97 1.97-4.03-.83-1.51 0-2.5.14-4.03.14 0 5.88 7.91 5.47 10.34 3.81 2.42-1.65 3.11-6.06-1.22-7.51-.87-.3-1.62-.51-2.48-.72-.77-.19-2.19-.24-2.19-1.14 0-1.13.91-.97 1.8-.97.93 0 1.46.79 1.53 1.67 1.22 0 1.85-.15 3.07-.13.77.01 1.49.09.48-1.89C52.09.14 49.8.01 47.78 0h-.54c-2.56.02-4.96 1.52-4.96 4.03zM8.53 25.97c0 1.56-3.91 2.18-4.17-.97-1.33 0-2.78.17-4.03.28 0 1.52.82 2.73 1.63 3.51.77.74 2.21 1.12 3.71 1.21h1.59c.95-.06 1.83-.22 2.46-.47 3.17-1.24 4.93-6.43-.79-8.26-2.28-.73-4.15-.53-4.15-1.82 0-1.16 3.28-1.37 3.33.83 1.54 0 2.54-.14 4.03-.14 0-5.13-7.96-4.86-10.18-2.82-1.02.95-1.49 2.74-.8 4.21.61 1.32 1.99 1.88 3.46 2.38.67.22 2.9.67 3.38 1.06.19.16.53.71.53 1zM21.86 30h.26c1.77 0 3.3-.05 4.64-1.35.76-.74 1.74-1.99 1.77-3.37l-3.61-1.11c-.42.87-.41 2.64-2.78 2.64-2.04 0-2.5-1.85-2.5-3.89 0-3.89 2.79-4.39 4.27-3.16.49.4.58.81.87 1.35 1.18-.27 2.43-.56 3.61-.83-.02-.96-.92-2.19-1.61-2.83-2.36-2.2-7.39-1.86-9.61.36-2.12 2.11-2.58 6.93-.17 10.11.94 1.24 2.67 2.08 4.86 2.08z" class="fil0"/></g></g></svg>